<?xml version="1.0" encoding="UTF-8"?>
<!DOCTYPE svg PUBLIC "-//W3C//DTD SVG 1.1//EN" "http://www.w3.org/Graphics/SVG/1.1/DTD/svg11.dtd">
<svg xmlns="http://www.w3.org/2000/svg" version="1.1" width="579px" height="474px" style="shape-rendering:geometricPrecision; text-rendering:geometricPrecision; image-rendering:optimizeQuality; fill-rule:evenodd; clip-rule:evenodd" xmlns:xlink="http://www.w3.org/1999/xlink">
<g><path style="opacity:0.981" fill="#b89700" d="M 234.5,40.5 C 256.13,39.3985 272.963,47.7318 285,65.5C 297.686,93.0841 292.186,116.251 268.5,135C 243.95,147.654 221.783,144.487 202,125.5C 184.771,101.356 185.604,77.8557 204.5,55C 213.137,47.1805 223.137,42.3472 234.5,40.5 Z"/></g>
<g><path style="opacity:0.972" fill="#b89700" d="M 324.5,48.5 C 344.083,46.1985 357.249,54.1985 364,72.5C 367.123,91.43 359.956,104.597 342.5,112C 317.474,116.289 303.14,105.956 299.5,81C 300.521,64.4248 308.855,53.5915 324.5,48.5 Z"/></g>
<g><path style="opacity:0.979" fill="#b89700" d="M 410.5,66.5 C 430.544,65.2725 446.044,72.9392 457,89.5C 468.994,114.869 464.161,136.369 442.5,154C 424.277,164.221 406.277,163.888 388.5,153C 371.269,138.973 365.436,121.14 371,99.5C 378.02,80.9679 391.186,69.9679 410.5,66.5 Z"/></g>
<g><path style="opacity:0.962" fill="#b89700" d="M 149.5,78.5 C 173.79,77.9523 183.956,89.6189 180,113.5C 171.632,129.291 159.132,133.791 142.5,127C 129.191,116.929 126.358,104.429 134,89.5C 137.962,84.0231 143.129,80.3564 149.5,78.5 Z"/></g>
<g><path style="opacity:0.924" fill="#b89700" d="M 106.5,99.5 C 115.199,99.2533 120.699,103.253 123,111.5C 122.227,126.48 114.727,131.313 100.5,126C 92.5,118 92.5,110 100.5,102C 102.611,101.155 104.611,100.322 106.5,99.5 Z"/></g>
<g><path style="opacity:0.939" fill="#b89700" d="M 344.5,118.5 C 361.286,118.073 366.786,125.739 361,141.5C 354.803,147.104 347.969,147.937 340.5,144C 334.896,137.803 334.063,130.969 338,123.5C 339.965,121.45 342.132,119.783 344.5,118.5 Z"/></g>
<g><path style="opacity:0.937" fill="#b89700" d="M 187.5,128.5 C 201.787,130.407 206.287,138.074 201,151.5C 193.654,159.126 185.987,159.46 178,152.5C 172.121,140.622 175.288,132.622 187.5,128.5 Z"/></g>
<g><path style="opacity:0.981" fill="#b89700" d="M 94.5,136.5 C 123.756,136.202 141.923,150.202 149,178.5C 151.46,209.023 137.96,228.19 108.5,236C 76.1853,238.604 56.6853,224.104 50,192.5C 49.366,161.395 64.1994,142.728 94.5,136.5 Z"/></g>
<g><path style="opacity:0.955" fill="#b89700" d="M 488.5,139.5 C 506.318,138.488 515.151,146.821 515,164.5C 511.073,177.72 502.24,183.22 488.5,181C 478.521,177.848 473.187,171.014 472.5,160.5C 473.386,149.965 478.719,142.965 488.5,139.5 Z"/></g>
<g><path style="opacity:0.961" fill="#b89700" d="M 276.5,142.5 C 300.385,140.978 310.552,151.978 307,175.5C 300.18,189.157 289.347,193.991 274.5,190C 261.208,183.476 256.374,172.976 260,158.5C 263.438,150.893 268.938,145.56 276.5,142.5 Z"/></g>
<g><path style="opacity:0.979" fill="#b89700" d="M 348.5,155.5 C 381.164,155.168 399.497,171.168 403.5,203.5C 400.939,233.228 384.772,249.562 355,252.5C 325.462,249.628 309.295,233.462 306.5,204C 308.613,177.396 322.613,161.229 348.5,155.5 Z"/></g>
<g><path style="opacity:0.981" fill="#b89700" d="M 200.5,162.5 C 229.517,161.396 247.683,174.729 255,202.5C 257.418,233.836 243.252,252.669 212.5,259C 180.118,259.289 162.118,243.289 158.5,211C 160.654,184.359 174.654,168.192 200.5,162.5 Z"/></g>
<g><path style="opacity:0.969" fill="#b89700" d="M 460.5,183.5 C 486.301,181.806 499.468,193.806 500,219.5C 495.101,240.382 481.935,249.549 460.5,247C 442.796,241.287 434.629,229.12 436,210.5C 438.804,196.534 446.971,187.534 460.5,183.5 Z"/></g>
<g><path style="opacity:0.955" fill="#b89700" d="M 280.5,213.5 C 298.314,213.812 306.48,222.812 305,240.5C 300.206,253.627 291.04,258.46 277.5,255C 268.489,251.146 263.822,244.313 263.5,234.5C 264.433,223.575 270.1,216.575 280.5,213.5 Z"/></g>
<g><path style="opacity:0.954" fill="#b89700" d="M 123.5,238.5 C 142.981,237.147 151.814,246.147 150,265.5C 144.648,278.409 135.148,282.909 121.5,279C 109.082,272.083 105.582,261.916 111,248.5C 114.191,243.837 118.358,240.503 123.5,238.5 Z"/></g>
<g><path style="opacity:0.965" fill="#b89700" d="M 504.5,244.5 C 527.647,242.813 538.147,253.48 536,276.5C 528.185,294.111 515.351,298.944 497.5,291C 485.824,281.259 483.324,269.426 490,255.5C 493.857,250.468 498.69,246.801 504.5,244.5 Z"/></g>
<g><path style="opacity:0.981" fill="#b89700" d="M 436.5,257.5 C 462.744,257.587 479.244,270.254 486,295.5C 489.216,324.259 477.049,342.759 449.5,351C 415.908,353.741 396.908,338.408 392.5,305C 395.328,278.011 409.995,262.177 436.5,257.5 Z"/></g>
<g><path style="opacity:0.948" fill="#b89700" d="M 367.5,259.5 C 385.631,257.793 393.131,265.793 390,283.5C 383.556,294.193 374.723,296.693 363.5,291C 356.447,284.863 354.614,277.363 358,268.5C 360.406,264.592 363.572,261.592 367.5,259.5 Z"/></g>
<g><path style="opacity:0.98" fill="#b89700" d="M 288.5,267.5 C 310.888,267.27 326.722,277.27 336,297.5C 344.325,325.677 335.491,346.511 309.5,360C 280.869,368.243 260.036,359.077 247,332.5C 239.219,296.682 253.052,275.016 288.5,267.5 Z"/></g>
<g><path style="opacity:0.96" fill="#b89700" d="M 197.5,296.5 C 216.77,296.045 225.27,305.379 223,324.5C 218.082,337.045 208.915,341.879 195.5,339C 181.563,332.442 177.396,321.942 183,307.5C 186.562,301.988 191.396,298.322 197.5,296.5 Z"/></g>
<g><path style="opacity:0.942" fill="#b89700" d="M 358.5,302.5 C 369.867,300.542 376.534,305.209 378.5,316.5C 376.349,328.477 369.349,332.977 357.5,330C 349.127,324.199 347.293,316.699 352,307.5C 353.965,305.45 356.132,303.783 358.5,302.5 Z"/></g>
<g><path style="opacity:0.974" fill="#b89700" d="M 372.5,336.5 C 393.418,334.612 406.918,343.612 413,363.5C 415.692,383.622 407.525,397.122 388.5,404C 358.2,406.701 344.034,392.867 346,362.5C 350.122,348.877 358.955,340.21 372.5,336.5 Z"/></g>
<g><path style="opacity:0.935" fill="#b89700" d="M 475.5,347.5 C 490.476,348.788 495.31,356.454 490,370.5C 482.619,378.033 474.952,378.366 467,371.5C 461.389,360.199 464.223,352.199 475.5,347.5 Z"/></g>
<g><path style="opacity:0.955" fill="#b89700" d="M 308.5,367.5 C 324.227,365.897 333.227,372.897 335.5,388.5C 331.177,407.829 319.844,413.662 301.5,406C 289.587,394.367 289.587,382.7 301.5,371C 303.925,369.787 306.259,368.621 308.5,367.5 Z"/></g>
<g><path style="opacity:0.939" fill="#b89700" d="M 395.5,408.5 C 412.931,407.425 418.764,415.091 413,431.5C 405.935,437.716 398.602,438.05 391,432.5C 385.239,423.06 386.739,415.06 395.5,408.5 Z"/></g>
</svg>
